# xmcd
#
# Track frame offsets: 
#        150
#        19863
#        31780
#        56912
#        75345
#        103134
#        127670
#        152976
#        164196
#        182082
#        196370
#        215434
#
# Disc length: 3090 seconds
#
# Revision: 2
# Processed by: cddbd v1.5.2PL0 Copyright (c) Steve Scherf et al.
# Submitted via: ExactAudioCopy v0.99pb4
#
DISCID=9f0c100c
DTITLE=Various Artist - Bar Jazz 06 - CD2 Cocktail Lounge
DYEAR=2005
DGENRE=Jazz
TTITLE0=David A. Steward and Candy Dulfer - Lily Was Here
TTITLE1=Henry Mancini - The Pink Panther Theme
TTITLE2=Miles Davis - Time After Time
TTITLE3=Marcus Roberts - Solitude
TTITLE4=Joel Harrison and Norah Jones - Tennessee Waltz
TTITLE5=Errol Garner - Moonglow
TTITLE6=Gato Barbieri - Straight Into The Sunrise
TTITLE7=Rosemary Clooney - Me And You
TTITLE8=Duke Ellington - Lotus Blossom
TTITLE9=Supersax and L.A. Voices - April in Paris
TTITLE10=Audio Lotion - America da alma
TTITLE11=Soul G and Tony Match present Flight Code - Lovely Dayz
EXTD=
EXTT0=
EXTT1=
EXTT2=
EXTT3=
EXTT4=
EXTT5=
EXTT6=
EXTT7=
EXTT8=
EXTT9=
EXTT10=
EXTT11=
PLAYORDER=
